<svg xmlns="http://www.w3.org/2000/svg" viewBox="0 0 466 466"><path fill="#FFF" d="M300.163 198.39V84.472C300.163 37.894 262.27 0 215.69 0c-27.49 0-49.853 22.365-49.853 49.855V342.63c0 22.377 11.52 33.44 30.603 51.772 3.395 3.26 7.188 6.912 11.252 10.93V458a8 8 0 0 0 16 0v-16.686c23.363-23.346 52.332-52.052 52.63-52.35a8 8 0 0 0-11.26-11.365c-.253.25-20.887 20.7-41.37 41.11v-13.395c23.363-23.346 52.332-52.052 52.63-52.35a8 8 0 0 0-11.26-11.365c-.253.25-20.887 20.7-41.37 41.114v-13.387c8.22-8.168 15.82-15.474 22.59-21.975 34.743-33.373 53.88-51.755 53.88-89.82v-59.14zm-16-113.918v9.352l-25.895 25.894a7.998 7.998 0 0 0 0 11.313 7.97 7.97 0 0 0 5.657 2.346c2.047 0 4.095-.78 5.657-2.343l14.58-14.58v78.627l-60.47 60.47v-78.626l25.893-25.893a7.998 7.998 0 0 0 0-11.312 8 8 0 0 0-11.313 0l-14.58 14.58V16.483c33.997 3.976 60.47 32.94 60.47 67.99zm-76.64 298.39c-18.167-17.45-25.687-24.67-25.687-40.23V49.854c0-15.91 11.037-29.287 25.854-32.892v366.063a8.465 8.465 0 0 0-.167-.162zm27.674-47.053a2761.37 2761.37 0 0 0-11.507 11.09v-68.727l60.474-60.47v39.823c0 31.246-15.345 45.985-48.966 78.28z"/></svg>